<?xml version="1.0" encoding="utf-8"?>
<!-- Generator: Adobe Illustrator 19.2.1, SVG Export Plug-In . SVG Version: 6.00 Build 0)  -->
<svg version="1.1" id="layer" xmlns="http://www.w3.org/2000/svg" xmlns:xlink="http://www.w3.org/1999/xlink" x="0px" y="0px"
	 viewBox="0 0 652 652" style="enable-background:new 0 0 652 652;" xml:space="preserve">
<style type="text/css">
	.st0{fill:#888888;}
	.st1{fill:#FFFFFF;}
	.st2{fill:#9C5789;}
</style>
<circle class="st0" cx="547.9" cy="344.4" r="72.4"/>
<path class="st1" d="M547.9,387.1c23.6,0,42.7-19.1,42.7-42.7c0-23.6-19.1-42.7-42.7-42.7c-23.6,0-42.7,19.1-42.7,42.7
	C505.2,368,524.3,387.1,547.9,387.1L547.9,387.1z"/>
<circle class="st0" cx="394.4" cy="344.4" r="72.4"/>
<path class="st1" d="M394.4,387.1c23.6,0,42.7-19.1,42.7-42.7c0-23.6-19.1-42.7-42.7-42.7c-23.6,0-42.7,19.1-42.7,42.7
	C351.7,368,370.8,387.1,394.4,387.1L394.4,387.1z"/>
<path class="st0" d="M315.3,343.8c0,0.2,0,0.4,0,0.6c0,40-32.4,72.4-72.4,72.4c-40,0-72.4-32.4-72.4-72.4c0-40,32.4-72.4,72.4-72.4
	c16.4,0,31.5,5.5,43.7,14.6v-46.2c0-8,6.4-14.4,14.4-14.4c7.9,0,14.4,6.5,14.4,14.4v102.7C315.4,343.3,315.4,343.6,315.3,343.8z"/>
<circle class="st1" cx="242.9" cy="344.4" r="42.7"/>
<circle class="st2" cx="92.8" cy="344.2" r="72.4"/>
<circle class="st1" cx="92.1" cy="344.5" r="42.7"/>
</svg>
